<svg width="24" height="24" viewBox="0 0 24 24" fill="none" xmlns="http://www.w3.org/2000/svg">
<g clip-path="url(#clip0_41_158)">
<path d="M12.0001 -0.0149841C5.20577 -0.0149841 -0.303711 5.49353 -0.303711 12.2888C-0.303711 17.725 3.22169 22.3371 8.11041 23.9639C8.72531 24.0778 8.9511 23.697 8.9511 23.372C8.9511 23.0786 8.93956 22.1094 8.93437 21.0814C5.51144 21.8256 4.78917 19.6297 4.78917 19.6297C4.22945 18.2075 3.42297 17.8293 3.42297 17.8293C2.3067 17.0657 3.50718 17.0814 3.50718 17.0814C4.74265 17.1681 5.39321 18.3493 5.39321 18.3493C6.49064 20.2302 8.27161 19.6865 8.97369 19.372C9.08413 18.5769 9.40297 18.034 9.75488 17.7268C7.02201 17.4158 4.14918 16.3607 4.14918 11.6463C4.14918 10.3029 4.6298 9.20532 5.41685 8.34367C5.2891 8.03377 4.86799 6.78244 5.53604 5.0876C5.53604 5.0876 6.56927 4.75694 8.92053 6.34883C9.90195 6.07623 10.9545 5.93954 12.0001 5.93483C13.0457 5.93954 14.0992 6.07613 15.0824 6.34883C17.4308 4.75704 18.4626 5.0877 18.4626 5.0877C19.1322 6.78235 18.7109 8.03387 18.5832 8.34367C19.3721 9.20532 19.8494 10.3029 19.8494 11.6463C19.8494 16.372 16.9711 17.4125 14.2313 17.7171C14.6726 18.0989 15.0659 18.8477 15.0659 19.9956C15.0659 21.6418 15.0516 22.9668 15.0516 23.372C15.0516 23.6995 15.2731 24.0831 15.8967 23.9622C20.7828 22.3336 24.3038 17.7233 24.3038 12.2889C24.3038 5.49353 18.795 -0.0149841 12.0001 -0.0149841ZM4.30452 17.5121C4.27741 17.5732 4.18119 17.5916 4.09362 17.5496C4.00433 17.5095 3.95425 17.4261 3.98308 17.3648C4.00961 17.3018 4.10602 17.2843 4.19503 17.3265C4.28443 17.3666 4.33537 17.4507 4.30452 17.5121ZM4.90971 18.0521C4.85107 18.1065 4.7363 18.0812 4.65844 17.9953C4.57799 17.9095 4.5629 17.7948 4.6224 17.7396C4.68295 17.6852 4.79417 17.7107 4.87481 17.7964C4.95537 17.8832 4.97094 17.9971 4.90971 18.0521ZM5.32496 18.743C5.2495 18.7954 5.12627 18.7463 5.05005 18.6369C4.97469 18.5275 4.97469 18.3963 5.05168 18.3437C5.1281 18.2911 5.2495 18.3384 5.32669 18.4471C5.40186 18.5583 5.40186 18.6895 5.32486 18.7431L5.32496 18.743ZM6.02704 19.5432C5.95966 19.6176 5.81595 19.5976 5.7108 19.4961C5.60323 19.3969 5.57334 19.2562 5.64101 19.1818C5.70926 19.1072 5.85373 19.1282 5.95966 19.2289C6.06635 19.3279 6.09904 19.4697 6.02704 19.5432ZM6.93463 19.8133C6.90483 19.9098 6.76642 19.9536 6.62714 19.9126C6.48795 19.8704 6.39692 19.7576 6.42499 19.6602C6.45392 19.5631 6.59292 19.5176 6.73326 19.5614C6.87225 19.6033 6.96357 19.7153 6.93463 19.8133ZM7.96738 19.928C7.97084 20.0294 7.8527 20.1135 7.7064 20.1155C7.55934 20.1187 7.44024 20.0366 7.4386 19.9367C7.4386 19.8343 7.55414 19.751 7.70131 19.7485C7.84761 19.7456 7.96738 19.8271 7.96738 19.928ZM8.98195 19.8891C8.99945 19.9881 8.89785 20.0898 8.75251 20.1169C8.60977 20.143 8.4775 20.0818 8.45933 19.9837C8.44165 19.8822 8.54517 19.7805 8.68772 19.7542C8.83325 19.729 8.9634 19.7885 8.98195 19.8891Z" fill="black"/>
</g>
<defs>
<clipPath id="clip0_41_158">
<rect width="24" height="24" fill="white"/>
</clipPath>
</defs>
</svg>
